<?xml version="1.0" encoding="iso-8859-1"?>
<!-- Generator: Adobe Illustrator 19.0.0, SVG Export Plug-In . SVG Version: 6.00 Build 0)  -->
<svg version="1.1" id="Layer_1" xmlns="http://www.w3.org/2000/svg" xmlns:xlink="http://www.w3.org/1999/xlink" x="0px" y="0px"
	 viewBox="0 0 464 464" style="enable-background:new 0 0 464 464;" xml:space="preserve">
<g>
	<g>
		<g>
			<path style="fill:#FFE5D1;" d="M416,184c-2.119,0-4.191,0.185-6.237,0.451C388.798,105.884,317.173,48,232,48
				S75.202,105.884,54.237,184.451C52.191,184.185,50.119,184,48,184c-26.51,0-48,21.49-48,48s21.49,48,48,48
				c2.119,0,4.191-0.185,6.237-0.451C75.202,358.116,146.827,416,232,416s156.798-57.884,177.763-136.451
				c2.046,0.266,4.118,0.451,6.237,0.451c26.51,0,48-21.49,48-48S442.51,184,416,184z"/>
		</g>
		<g>
			<g>
				<path style="fill:#FFD6B3;" d="M251.824,288c-2.518,0-4.977,0.312-7.354,0.905c-12.343,3.08-24.948,3.08-37.291,0
					c-2.378-0.593-4.837-0.905-7.354-0.905c-20.987,0-38,21.49-38,48s17.013,48,38,48c2.518,0,4.977-0.312,7.354-0.905
					c12.343-3.08,24.948-3.08,37.291,0c2.378,0.593,4.837,0.905,7.354,0.905c20.987,0,38-21.49,38-48S272.811,288,251.824,288z"/>
			</g>
		</g>
	</g>
	<g>
		<g>
			<path style="fill:#FFD6B3;" d="M120,232c0-89.192,63.466-163.544,147.698-180.401C256.136,49.321,244.231,48,232,48
				c-85.173,0-156.798,57.884-177.763,136.451C52.191,184.185,50.119,184,48,184c-26.51,0-48,21.49-48,48s21.49,48,48,48
				c2.119,0,4.191-0.185,6.237-0.451C75.202,358.116,146.827,416,232,416c12.231,0,24.136-1.321,35.698-3.599
				C183.466,395.544,120,321.191,120,232z"/>
		</g>
	</g>
	<g>
		<g>
			<path style="fill:#6E4141;" d="M156,256L156,256c-6.627,0-12-5.373-12-12v-16c0-6.627,5.373-12,12-12l0,0c6.627,0,12,5.373,12,12
				v16C168,250.627,162.627,256,156,256z"/>
		</g>
	</g>
	<g>
		<g>
			<path style="fill:#6E4141;" d="M308,256L308,256c-6.627,0-12-5.373-12-12v-16c0-6.627,5.373-12,12-12l0,0c6.627,0,12,5.373,12,12
				v16C320,250.627,314.627,256,308,256z"/>
		</g>
	</g>
	<g>
		<g>
			<g>
				<path style="fill:#E6B996;" d="M136.023,207.969c-2.32,0-4.625-1-6.203-2.934c-2.773-3.41-2.305-8.395,1.078-11.199
					C131.383,193.438,142.977,184,160,184c4.422,0,8,3.582,8,8s-3.578,8-8,8c-11.086,0-18.867,6.137-18.945,6.199
					C139.57,207.387,137.797,207.969,136.023,207.969z"/>
			</g>
		</g>
	</g>
	<g>
		<g>
			<g>
				<path style="fill:#E6B996;" d="M327.977,207.969c2.32,0,4.625-1,6.203-2.934c2.773-3.41,2.305-8.395-1.078-11.199
					C332.617,193.438,321.023,184,304,184c-4.422,0-8,3.582-8,8s3.578,8,8,8c11.086,0,18.867,6.137,18.945,6.199
					C324.43,207.387,326.203,207.969,327.977,207.969z"/>
			</g>
		</g>
	</g>
	<g>
		<g>
			<path style="fill:#C3A587;" d="M232.025,48.001c-0.008,0-0.017-0.001-0.025-0.001c-17.602,0-34.571,2.597-50.688,7.212
				c-9.517,10.76-14.802,23.876-14.531,36.381C167.242,113.063,184.625,136,232,136c15.594,0,27.977-2.543,36.813-7.563
				c9.125-5.188,14.156-12.914,14.156-21.758c0-16.676-19.57-34.68-51.188-34.68c-4.422,0-8,3.582-8,8s3.578,8,8,8
				c21.797,0,35.188,10.879,35.188,18.68c0,3.637-3.297,6.273-6.063,7.848C256.508,117.023,247.93,120,232,120
				c-30.43,0-48.836-10.746-49.219-28.75C182.36,71.839,202.48,49.326,232.025,48.001z"/>
		</g>
	</g>
	<g>
		<g>
			<path style="fill:#00BEA5;" d="M258,280c-2.518,0-4.977,0.312-7.354,0.905c-12.343,3.08-24.948,3.08-37.291,0
				C210.977,280.312,208.518,280,206,280c-20.987,0-38,21.49-38,48s17.013,48,38,48c2.518,0,4.977-0.312,7.354-0.905
				c12.343-3.08,24.948-3.08,37.291,0c2.378,0.593,4.837,0.905,7.354,0.905c20.987,0,38-21.49,38-48S278.987,280,258,280z M184,336
				c-4.418,0-8-3.582-8-8s3.582-8,8-8s8,3.582,8,8S188.418,336,184,336z M280,336c-4.418,0-8-3.582-8-8s3.582-8,8-8s8,3.582,8,8
				S284.418,336,280,336z"/>
		</g>
	</g>
	<g>
		<g>
			<g>
				<path style="fill:#007D82;" d="M232,368c-17.563,0-33.328-11.746-38.344-28.57c-1.086-3.648-0.391-7.5,1.898-10.57
					c2.305-3.086,5.828-4.859,9.664-4.859h53.563c3.836,0,7.359,1.773,9.664,4.859c2.289,3.07,2.984,6.922,1.898,10.57
					C265.328,356.254,249.563,368,232,368z M205.219,332c-1.289,0-2.477,0.598-3.25,1.645c-0.766,1.023-1,2.301-0.641,3.504
					C205.336,350.602,217.945,360,232,360s26.664-9.398,30.672-22.852c0.359-1.203,0.125-2.48-0.641-3.504
					c-0.773-1.047-1.961-1.645-3.25-1.645L205.219,332L205.219,332z"/>
			</g>
		</g>
	</g>
	<g>
		<g>
			<circle style="fill:#FFFFFF;" cx="232" cy="328" r="24"/>
		</g>
	</g>
	<g>
		<g>
			<path style="fill:#FFE5D1;" d="M224,328c0-10.435,6.7-19.224,16-22.53c-2.514-0.894-5.18-1.47-8-1.47c-13.255,0-24,10.745-24,24
				s10.745,24,24,24c2.82,0,5.486-0.576,8-1.47C230.7,347.224,224,338.435,224,328z"/>
		</g>
	</g>
</g>
<g>
</g>
<g>
</g>
<g>
</g>
<g>
</g>
<g>
</g>
<g>
</g>
<g>
</g>
<g>
</g>
<g>
</g>
<g>
</g>
<g>
</g>
<g>
</g>
<g>
</g>
<g>
</g>
<g>
</g>
</svg>
