<?xml version="1.0" encoding="iso-8859-1"?>
<!-- Generator: Adobe Illustrator 19.0.0, SVG Export Plug-In . SVG Version: 6.00 Build 0)  -->
<svg version="1.1" id="Layer_1" xmlns="http://www.w3.org/2000/svg" xmlns:xlink="http://www.w3.org/1999/xlink" x="0px" y="0px"
	 viewBox="0 0 464 464" style="enable-background:new 0 0 464 464;" xml:space="preserve">
<g>
	<g>
		<g>
			<g>
				<path style="fill:#FFE5D1;" d="M416,198.626c-2.119,0-4.191,0.185-6.237,0.451C388.798,120.51,317.173,62.626,232,62.626
					S75.202,120.51,54.237,199.077c-2.046-0.266-4.118-0.451-6.237-0.451c-26.51,0-48,21.49-48,48s21.49,48,48,48
					c2.119,0,4.191-0.185,6.237-0.451C75.202,372.742,146.827,430.626,232,430.626s156.798-57.884,177.763-136.451
					c2.046,0.266,4.118,0.451,6.237,0.451c26.51,0,48-21.49,48-48S442.51,198.626,416,198.626z"/>
			</g>
			<g>
				<g>
					<path style="fill:#FFD6B3;" d="M251.824,302.626c-2.518,0-4.977,0.312-7.354,0.905c-12.343,3.08-24.948,3.08-37.291,0
						c-2.378-0.593-4.837-0.905-7.354-0.905c-20.987,0-38,21.49-38,48s17.013,48,38,48c2.518,0,4.977-0.312,7.354-0.905
						c12.343-3.08,24.948-3.08,37.291,0c2.378,0.593,4.837,0.905,7.354,0.905c20.987,0,38-21.49,38-48
						S272.811,302.626,251.824,302.626z"/>
				</g>
			</g>
		</g>
		<g>
			<g>
				<path style="fill:#FFD6B3;" d="M120,246.626c0-89.192,63.466-163.544,147.698-180.401c-11.563-2.277-23.467-3.599-35.698-3.599
					c-85.173,0-156.798,57.884-177.763,136.451c-2.046-0.266-4.118-0.451-6.237-0.451c-26.51,0-48,21.49-48,48
					c0,26.51,21.49,48,48,48c2.119,0,4.191-0.185,6.237-0.451C75.202,372.742,146.827,430.626,232,430.626
					c12.231,0,24.136-1.321,35.698-3.599C183.466,410.17,120,335.818,120,246.626z"/>
			</g>
		</g>
		<g>
			<g>
				<path style="fill:#6E4141;" d="M156,270.626L156,270.626c-6.627,0-12-5.373-12-12v-16c0-6.627,5.373-12,12-12l0,0
					c6.627,0,12,5.373,12,12v16C168,265.254,162.627,270.626,156,270.626z"/>
			</g>
		</g>
		<g>
			<g>
				<path style="fill:#6E4141;" d="M308,270.626L308,270.626c-6.627,0-12-5.373-12-12v-16c0-6.627,5.373-12,12-12l0,0
					c6.627,0,12,5.373,12,12v16C320,265.254,314.627,270.626,308,270.626z"/>
			</g>
		</g>
		<g>
			<g>
				<g>
					<path style="fill:#E6B996;" d="M136.023,222.595c-2.32,0-4.625-1-6.203-2.934c-2.773-3.41-2.305-8.395,1.078-11.199
						c0.484-0.398,12.078-9.836,29.102-9.836c4.422,0,8,3.582,8,8s-3.578,8-8,8c-11.086,0-18.867,6.137-18.945,6.199
						C139.57,222.013,137.797,222.595,136.023,222.595z"/>
				</g>
			</g>
		</g>
		<g>
			<g>
				<g>
					<path style="fill:#E6B996;" d="M327.977,222.595c2.32,0,4.625-1,6.203-2.934c2.773-3.41,2.305-8.395-1.078-11.199
						c-0.484-0.398-12.078-9.836-29.102-9.836c-4.422,0-8,3.582-8,8s3.578,8,8,8c11.086,0,18.867,6.137,18.945,6.199
						C324.43,222.013,326.203,222.595,327.977,222.595z"/>
				</g>
			</g>
		</g>
		<g>
			<g>
				<path style="fill:#FF6472;" d="M258,294.626c-2.518,0-4.977,0.312-7.354,0.905c-12.343,3.08-24.948,3.08-37.291,0
					c-2.378-0.593-4.837-0.905-7.354-0.905c-20.987,0-38,21.49-38,48s17.013,48,38,48c2.518,0,4.977-0.312,7.354-0.905
					c12.343-3.08,24.948-3.08,37.291,0c2.378,0.593,4.837,0.905,7.354,0.905c20.987,0,38-21.49,38-48S278.987,294.626,258,294.626z
					 M184,350.626c-4.418,0-8-3.582-8-8s3.582-8,8-8s8,3.582,8,8S188.418,350.626,184,350.626z M280,350.626c-4.418,0-8-3.582-8-8
					s3.582-8,8-8s8,3.582,8,8S284.418,350.626,280,350.626z"/>
			</g>
		</g>
		<g>
			<g>
				<g>
					<path style="fill:#A5465A;" d="M232,382.626c-17.563,0-33.328-11.746-38.344-28.57c-1.086-3.648-0.391-7.5,1.898-10.57
						c2.305-3.086,5.828-4.859,9.664-4.859h53.563c3.836,0,7.359,1.773,9.664,4.859c2.289,3.07,2.984,6.922,1.898,10.57
						C265.328,370.88,249.563,382.626,232,382.626z M205.219,346.626c-1.289,0-2.477,0.598-3.25,1.645
						c-0.766,1.023-1,2.301-0.641,3.504c4.008,13.453,16.617,22.852,30.672,22.852s26.664-9.398,30.672-22.852
						c0.359-1.203,0.125-2.48-0.641-3.504c-0.773-1.047-1.961-1.645-3.25-1.645H205.219z"/>
				</g>
			</g>
		</g>
		<g>
			<g>
				<circle style="fill:#FFFFFF;" cx="232" cy="342.626" r="24"/>
			</g>
		</g>
		<g>
			<g>
				<path style="fill:#FFE5D1;" d="M224,342.626c0-10.435,6.7-19.224,16-22.53c-2.514-0.894-5.18-1.47-8-1.47
					c-13.255,0-24,10.745-24,24s10.745,24,24,24c2.82,0,5.486-0.576,8-1.47C230.7,361.851,224,353.061,224,342.626z"/>
			</g>
		</g>
	</g>
	<g>
		<g>
			<g>
				<path style="fill:#FF6472;" d="M224,70.627l-69.701,20.91C149.166,93.077,144,89.233,144,83.874V41.379
					c0-5.359,5.166-9.202,10.299-7.663L224,54.626V70.627z"/>
			</g>
		</g>
	</g>
	<g>
		<g>
			<g>
				<path style="fill:#FF6472;" d="M240,70.627l69.701,20.91c5.133,1.54,10.299-2.304,10.299-7.663V41.379
					c0-5.359-5.166-9.202-10.299-7.663L240,54.626V70.627z"/>
			</g>
		</g>
	</g>
	<g>
		<g>
			<g>
				<path style="fill:#C95264;" d="M280,66.627h-96c-2.211,0-4-1.789-4-4s1.789-4,4-4h96c2.211,0,4,1.789,4,4
					C284,64.837,282.211,66.627,280,66.627z"/>
			</g>
		</g>
	</g>
	<g>
		<g>
			<g>
				<path style="fill:#A5465A;" d="M240,78.627h-16c-4.418,0-8-3.582-8-8v-16c0-4.418,3.582-8,8-8h16c4.418,0,8,3.582,8,8v16
					C248,75.045,244.418,78.627,240,78.627z"/>
			</g>
		</g>
	</g>
</g>
<g>
</g>
<g>
</g>
<g>
</g>
<g>
</g>
<g>
</g>
<g>
</g>
<g>
</g>
<g>
</g>
<g>
</g>
<g>
</g>
<g>
</g>
<g>
</g>
<g>
</g>
<g>
</g>
<g>
</g>
</svg>
