<?xml version="1.0" encoding="iso-8859-1"?>
<!-- Generator: Adobe Illustrator 19.0.0, SVG Export Plug-In . SVG Version: 6.00 Build 0)  -->
<svg version="1.1" id="Layer_1" xmlns="http://www.w3.org/2000/svg" xmlns:xlink="http://www.w3.org/1999/xlink" x="0px" y="0px"
	 viewBox="0 0 512 512" style="enable-background:new 0 0 512 512;" xml:space="preserve">
<path style="fill:#ECE5DD;" d="M256,512c-40.598,0-79.073-15.571-108.34-43.843c-29.188-28.198-46.088-65.969-47.584-106.357
	l-0.12-205.756C99.957,70.001,169.957,0,256,0s156.043,70.001,156.043,156.043v199.913C412.043,441.999,342.043,512,256,512z"/>
<path style="fill:#EAA846;" d="M357.878,110.816c-17.949-40.309-57.994-66.356-102.019-66.356s-84.071,26.046-102.019,66.356
	l-4.566,11.388l12.738,9.667h194.189l6.244-9.667L357.878,110.816z"/>
<path style="fill:#E2942D;" d="M179.482,110.816c16.187-36.355,50.353-61.1,89.198-65.606c-4.225-0.49-8.503-0.75-12.821-0.75
	c-44.026,0-84.071,26.046-102.019,66.356l-4.566,11.388l12.738,9.667h25.643l-12.282-9.667L179.482,110.816z"/>
<path style="fill:#EFCA83;" d="M255.207,312.12c-61.591-0.353-110.966-51.252-110.966-112.844v-43.197
	c0-9.164,1.126-18.299,3.346-27.152l1.687-6.723h104.797c0.829,0,1.565-0.53,1.827-1.316l9.655-28.966
	c0.506-1.519,2.54-1.793,3.429-0.459l19.922,29.884c0.358,0.535,0.958,0.857,1.602,0.857h71.939l1.687,6.723
	c2.221,8.853,3.346,17.988,3.346,27.152v44.425C367.476,262.267,317.051,312.475,255.207,312.12z"/>
<path style="fill:#EABB71;" d="M170.337,199.276v-43.197c0-9.164,1.126-18.299,3.346-27.152l1.687-6.723h-26.098l-1.687,6.723
	c-2.221,8.853-3.346,17.988-3.346,27.152v43.197c0,61.592,49.375,112.491,110.966,112.844c4.65,0.027,9.234-0.238,13.737-0.766
	C213.24,304.8,170.337,256.688,170.337,199.276z"/>
<circle style="fill:#765C43;" cx="200.324" cy="189.396" r="11.106"/>
<path style="fill:#E2942D;" d="M222.539,156.079c0-6.134-4.972-11.106-11.106-11.106H189.22c-6.134,0-11.106,4.972-11.106,11.106
	c0,6.134,4.972,11.106,11.106,11.106h22.213C217.567,167.185,222.539,162.213,222.539,156.079z"/>
<circle style="fill:#765C43;" cx="311.387" cy="189.396" r="11.106"/>
<path style="fill:#E2942D;" d="M322.496,144.973h-22.213c-6.134,0-11.106,4.972-11.106,11.106c0,6.134,4.972,11.106,11.106,11.106
	h22.213c6.134,0,11.106-4.972,11.106-11.106C333.602,149.945,328.63,144.973,322.496,144.973z"/>
<circle style="fill:#CB7A49;" cx="255.856" cy="244.927" r="36.94"/>
<path style="fill:#CC5A48;" d="M254.734,289.856c-6.042-0.569-10.537-5.882-10.537-11.95v-21.871
	c0-6.441,5.221-11.662,11.662-11.662l0,0c6.441,0,11.662,5.221,11.662,11.662v22.213
	C267.519,285.05,261.666,290.509,254.734,289.856z"/>
<g>
	<path style="fill:#D9CBBD;" d="M220.818,3.999C151.662,19.996,99.957,82.094,99.957,156.043l0.12,205.757
		c1.496,40.387,18.395,78.159,47.584,106.357c20.471,19.776,45.45,33.327,72.507,39.692c-18.057-7.639-34.743-18.596-49.233-32.595
		c-20.642-19.941-35.332-44.518-43.046-71.423c33.089,27.552,82.375,40.41,127.842,40.41c4.592,0-116.411-22.492-133.164-67.764
		c-0.39-3.682-0.661-7.389-0.8-11.12l-0.124-212.604C121.643,85.837,162.639,28.358,220.818,3.999z"/>
	<path style="fill:#D9CBBD;" d="M255.858,375.428c46.159,0,86.281-26.332,106.141-64.762
		C362,310.665,251.258,375.428,255.858,375.428z"/>
</g>
<g>
	<path style="fill:#E0A06B;" d="M191.87,250.481h-14.815c-5.939,0-10.753-4.815-10.753-10.753l0,0
		c0-5.939,4.815-10.753,10.753-10.753h14.815c5.939,0,10.753,4.815,10.753,10.753l0,0
		C202.623,245.667,197.809,250.481,191.87,250.481z"/>
	<path style="fill:#E0A06B;" d="M334.661,250.481h-14.815c-5.939,0-10.753-4.815-10.753-10.753l0,0
		c0-5.939,4.815-10.753,10.753-10.753h14.815c5.939,0,10.753,4.815,10.753,10.753l0,0
		C345.415,245.667,340.6,250.481,334.661,250.481z"/>
</g>
<g>
</g>
<g>
</g>
<g>
</g>
<g>
</g>
<g>
</g>
<g>
</g>
<g>
</g>
<g>
</g>
<g>
</g>
<g>
</g>
<g>
</g>
<g>
</g>
<g>
</g>
<g>
</g>
<g>
</g>
</svg>
