<?xml version="1.0" encoding="iso-8859-1"?>
<!-- Generator: Adobe Illustrator 19.0.0, SVG Export Plug-In . SVG Version: 6.00 Build 0)  -->
<svg version="1.1" id="Layer_1" xmlns="http://www.w3.org/2000/svg" xmlns:xlink="http://www.w3.org/1999/xlink" x="0px" y="0px"
	 viewBox="0 0 512.002 512.002" style="enable-background:new 0 0 512.002 512.002;" xml:space="preserve">
<circle style="fill:#FFD15D;" cx="256.001" cy="256" r="256"/>
<path style="fill:#F4A200;" d="M323.588,502.963c88.785-24.243,158.33-95.066,180.745-184.591L309.439,123.478l-119.52,99.768
	l-16.863,19.123l68.322,68.322l-29.344,80.717L323.588,502.963z"/>
<polygon style="fill:#935635;" points="181.868,224.528 181.868,323.855 255.859,319.01 255.859,219.684 "/>
<polygon style="fill:#804000;" points="329.87,214.84 255.859,219.684 255.859,319.01 329.87,314.165 "/>
<path style="fill:#FED8B2;" d="M277.903,304.826v-24.288H234.1v24.288c0,1.938-1.57,3.51-3.51,3.51h-30.186v83.815h111.192v-83.815
	h-30.186C279.474,308.336,277.903,306.766,277.903,304.826z"/>
<path style="fill:#EABE96;" d="M311.597,308.336h-30.186c-1.938,0-3.51-1.57-3.51-3.51v-24.288H255.86v111.614h55.737V308.336z"/>
<circle style="fill:#FED8B2;" cx="185.062" cy="229.659" r="17.505"/>
<circle style="fill:#EABE96;" cx="326.94" cy="229.641" r="17.505"/>
<path style="fill:#F4E3C3;" d="M257.973,302.547h-3.944c-36.486,0-66.065-29.577-66.065-66.063v-60.319
	c0-36.486,29.579-66.065,66.064-66.065h3.944c36.486,0,66.065,29.577,66.065,66.063v60.319
	C324.038,272.968,294.459,302.547,257.973,302.547z"/>
<path style="fill:#FED8B2;" d="M257.973,110.099h-2.113v192.448h2.113c36.486,0,66.064-29.579,66.064-66.065v-60.319
	C324.038,139.676,294.459,110.099,257.973,110.099z"/>
<path style="fill:#B97850;" d="M316.874,132.424c-12.974-18.482-34.433-30.573-58.73-30.573h-4.284
	c-39.614,0-71.99,32.115-71.99,71.728v5.548v95.422h10.793V200.02c-0.002,0-0.005,0-0.007,0
	c31.954-3.246,63.376-9.516,90.915-23.283c9.911,11.381,21.354,21.542,33.989,29.787v68.024h12.31v-82.67v-18.299
	C329.87,158.26,325.052,144.075,316.874,132.424z"/>
<path style="fill:#935635;" d="M316.874,132.424c-12.974-18.482-34.433-30.573-58.73-30.573h-2.282v85.995
	c9.564-3.029,18.841-6.675,27.71-11.111c9.911,11.381,21.354,21.542,33.989,29.787v68.024h12.31v-82.67v-18.299
	C329.87,158.26,325.052,144.075,316.874,132.424z"/>
<circle style="fill:#59595B;" cx="223.919" cy="239.778" r="6.804"/>
<circle style="fill:#272525;" cx="288.083" cy="239.778" r="6.804"/>
<path style="fill:#FD8469;" d="M256.001,287.373c-8.516,0-15.444-6.928-15.444-15.444c0-1.443,1.171-2.613,2.613-2.613
	c1.445,0,2.613,1.171,2.613,2.613c0,5.634,4.584,10.216,10.216,10.216c5.634,0,10.216-4.584,10.216-10.218
	c0-1.445,1.171-2.613,2.613-2.613s2.613,1.171,2.613,2.613C271.445,280.445,264.517,287.373,256.001,287.373z"/>
<path style="fill:#FC6F58;" d="M268.83,269.314c-1.443,0-2.613,1.171-2.613,2.613c0,5.634-4.582,10.218-10.216,10.218
	c-0.033,0-0.065-0.005-0.098-0.005v5.229c0.033,0,0.066,0.005,0.098,0.005c8.516,0,15.443-6.928,15.443-15.444
	C271.445,270.484,270.275,269.314,268.83,269.314z"/>
<path style="fill:#FF6472;" d="M316.37,308.336h-23.305c0,20.47-16.594,65.179-37.064,65.179c-20.47,0-37.064-44.71-37.064-65.179
	h-23.305c-28.069,0-50.822,22.756-50.822,50.824v127.493C178.437,502.894,216.155,512,256.001,512
	c38.285,0,74.597-8.418,107.211-23.483c1.331-0.712,2.665-1.417,3.98-2.155V359.159C367.193,331.09,344.439,308.336,316.37,308.336z
	"/>
<path style="fill:#C75163;" d="M367.193,486.653V359.159c0-28.069-22.754-50.822-50.822-50.821h-23.305
	c0,20.47-16.594,65.179-37.064,65.179c-0.047,0-0.093-0.009-0.141-0.009V512c0.047,0,0.093,0.002,0.141,0.002
	C295.847,512,333.566,502.894,367.193,486.653z"/>
<g>
	<path style="fill:#324A5E;" d="M258.871,511.964c49.602-0.546,95.822-15.181,134.83-40.117l47.211-47.211
		c23.343-23.343,23.343-61.188,0-84.532l-2.415-2.415c-23.343-23.343-61.188-23.343-84.532,0l-91.245,91.245
		C240.022,451.631,238.489,487.877,258.871,511.964z"/>
	<path style="fill:#324A5E;" d="M438.495,337.687c-23.343-23.343-61.188-23.343-84.532,0l-91.245,91.245
		c-22.699,22.699-24.23,58.944-3.849,83.032c2.346-0.026,4.677-0.114,7.008-0.202L439.5,338.694L438.495,337.687z"/>
</g>
<path style="fill:#2B3B4E;" d="M440.912,340.102l-1.408-1.408L265.879,511.762c46.944-1.783,90.658-16.158,127.821-39.915
	l47.211-47.211C464.254,401.291,464.254,363.446,440.912,340.102z"/>
<path style="fill:#FED8B2;" d="M363.66,433.173l10.112-10.112l-18.235-18.235l-10.112,10.112c-0.807,0.807-2.115,0.807-2.922,0
	l-12.567-12.567l-34.894,34.894l46.292,46.292l34.894-34.894l-12.567-12.567C362.854,435.288,362.854,433.981,363.66,433.173z"/>
<path style="fill:#EDBF96;" d="M363.662,433.173l10.112-10.112l-9.44-9.44l-46.54,46.392l23.54,23.543l34.894-34.894l-12.567-12.566
	C362.854,435.288,362.854,433.981,363.662,433.173z"/>
<circle style="fill:#FED8B2;" cx="355.522" cy="362.451" r="10.307"/>
<circle style="fill:#EABE96;" cx="414.6" cy="421.512" r="10.307"/>
<path style="fill:#F4E3C3;" d="M355.537,423.15l-1.643-1.643c-15.189-15.189-15.189-39.817,0-55.006l12.429-12.429
	c15.189-15.189,39.817-15.189,55.008,0l1.643,1.643c15.189,15.189,15.189,39.817,0,55.008l-12.429,12.429
	C395.354,438.341,370.727,438.341,355.537,423.15z"/>
<path style="fill:#FED8B2;" d="M422.701,355.442l-67.544,67.329l0.381,0.381c15.189,15.189,39.817,15.189,55.008,0l12.429-12.428
	c15.189-15.191,15.189-39.819,0-55.008L422.701,355.442z"/>
<circle style="fill:#59595B;" cx="369.882" cy="382.586" r="3.686"/>
<circle style="fill:#272525;" cx="394.448" cy="407.169" r="3.686"/>
<circle style="fill:#31BAFD;" cx="368.865" cy="409.738" r="14.231"/>
<g>
	<path style="fill:#2B9ED8;" d="M378.607,399.394l-20.127,20.063c0.107,0.114,0.202,0.236,0.314,0.348
		c5.558,5.558,14.569,5.558,20.127,0c5.558-5.558,5.558-14.569,0-20.127C378.821,399.577,378.71,399.491,378.607,399.394z"/>
	<path style="fill:#2B9ED8;" d="M362.016,428.279c-3.124,0-6.061-1.217-8.268-3.425c-2.208-2.208-3.425-5.144-3.425-8.268
		c0-3.124,1.217-6.06,3.425-8.27l0,0l0,0c2.208-2.208,5.144-3.425,8.268-3.425c3.124,0,6.061,1.217,8.268,3.425
		c2.208,2.208,3.425,5.146,3.425,8.27c0,3.124-1.217,6.06-3.425,8.27C368.075,427.065,365.138,428.279,362.016,428.279z
		 M362.016,410.062c-1.743,0-3.379,0.679-4.611,1.91l0,0c-1.231,1.233-1.91,2.87-1.91,4.613c0,1.743,0.679,3.379,1.91,4.611
		c2.463,2.463,6.758,2.465,9.225,0c1.231-1.233,1.91-2.87,1.91-4.611c0-1.743-0.679-3.381-1.91-4.611
		C365.395,410.741,363.757,410.062,362.016,410.062z"/>
</g>
<path style="fill:#1C8BB7;" d="M369.956,408.017l-3.679,3.667c0.114,0.1,0.241,0.179,0.35,0.288c1.231,1.231,1.91,2.87,1.91,4.611
	s-0.679,3.379-1.91,4.611c-2.465,2.465-6.759,2.463-9.225,0c-0.114-0.112-0.197-0.247-0.3-0.365l-3.679,3.667
	c0.109,0.117,0.209,0.243,0.322,0.357c2.208,2.21,5.144,3.425,8.268,3.425s6.06-1.215,8.268-3.424
	c2.208-2.208,3.425-5.146,3.425-8.27s-1.217-6.061-3.425-8.27C370.179,408.211,370.065,408.119,369.956,408.017z"/>
<path style="fill:#FFFFFF;" d="M262.721,428.932c-22.699,22.699-24.23,58.944-3.849,83.032
	c49.602-0.546,95.822-15.181,134.83-40.117l14.133-14.133L290.775,400.88L262.721,428.932z"/>
<path style="fill:#E6F3FF;" d="M265.879,511.762c46.944-1.783,90.658-16.158,127.821-39.915l14.133-14.133l-58.996-28.644
	L265.879,511.762z"/>
<polygon style="fill:#B5F1F4;" points="290.774,400.879 343.336,426.398 323.442,368.211 "/>
<g>
</g>
<g>
</g>
<g>
</g>
<g>
</g>
<g>
</g>
<g>
</g>
<g>
</g>
<g>
</g>
<g>
</g>
<g>
</g>
<g>
</g>
<g>
</g>
<g>
</g>
<g>
</g>
<g>
</g>
</svg>
