<?xml version="1.0" encoding="iso-8859-1"?>
<!-- Generator: Adobe Illustrator 19.0.0, SVG Export Plug-In . SVG Version: 6.00 Build 0)  -->
<svg version="1.1" id="Layer_1" xmlns="http://www.w3.org/2000/svg" xmlns:xlink="http://www.w3.org/1999/xlink" x="0px" y="0px"
	 viewBox="0 0 512.003 512.003" style="enable-background:new 0 0 512.003 512.003;" xml:space="preserve">
<g>
	<g>
		<path style="fill:#D1D4D1;" d="M114.76,370.761h52.966v-35.31H114.76V370.761z M176.553,388.416h-70.621
			c-4.882,0-8.828-3.955-8.828-8.828v-52.966c0-4.882,3.946-8.828,8.828-8.828h70.621c4.882,0,8.828,3.946,8.828,8.828v52.966
			C185.381,384.462,181.435,388.416,176.553,388.416L176.553,388.416z"/>
		<path style="fill:#D1D4D1;" d="M114.76,423.727h52.966v-35.31H114.76V423.727z M176.553,441.382h-70.621
			c-4.882,0-8.828-3.955-8.828-8.828v-52.966c0-4.882,3.946-8.828,8.828-8.828h70.621c4.882,0,8.828,3.946,8.828,8.828v52.966
			C185.381,437.427,181.435,441.382,176.553,441.382L176.553,441.382z"/>
		<path style="fill:#D1D4D1;" d="M114.76,476.692h52.966v-35.31H114.76V476.692z M176.553,494.347h-70.621
			c-4.882,0-8.828-3.955-8.828-8.828v-52.966c0-4.882,3.946-8.828,8.828-8.828h70.621c4.882,0,8.828,3.946,8.828,8.828v52.966
			C185.381,490.393,181.435,494.347,176.553,494.347L176.553,494.347z"/>
		<path style="fill:#D1D4D1;" d="M105.932,512c-4.882,0-8.828-3.955-8.828-8.828v-17.655c0-4.873,3.946-8.828,8.828-8.828
			s8.828,3.955,8.828,8.828v17.655C114.76,508.045,110.814,512,105.932,512"/>
		<path style="fill:#D1D4D1;" d="M176.553,512c-4.882,0-8.828-3.955-8.828-8.828v-17.655c0-4.873,3.946-8.828,8.828-8.828
			c4.882,0,8.828,3.955,8.828,8.828v17.655C185.381,508.045,181.435,512,176.553,512"/>
	</g>
	<polygon style="fill:#E04B3F;" points="17.656,335.451 264.829,335.451 264.829,105.934 17.656,105.934 	"/>
	<g>
		<polygon style="fill:#F3D55B;" points="141.243,0 282.484,105.931 0.001,105.931 		"/>
		<polygon style="fill:#F3D55B;" points="35.312,512.003 70.622,512.003 70.622,335.451 35.312,335.451 		"/>
		<polygon style="fill:#F3D55B;" points="211.863,512.003 247.174,512.003 247.174,335.451 211.863,335.451 		"/>
	</g>
	<path style="fill:#C03A2B;" d="M194.208,335.448H88.277V229.517c0-29.255,23.711-52.966,52.966-52.966s52.966,23.711,52.966,52.966
		V335.448z"/>
	<path style="fill:#F3D55B;" d="M317.794,185.379h-52.966v-35.31h17.655C301.984,150.069,317.794,165.879,317.794,185.379
		L317.794,185.379z"/>
	<path style="fill:#D1D4D1;" d="M494.346,476.69c-50.432,0-97.103-9.622-97.103-79.448c0-83.341-86.731-124.284-132.414-133.959
		v37.279c17.152,4.096,97.103,26.968,97.103,96.68c0,76.147,44.553,114.759,132.414,114.759h17.655v-35.31H494.346z"/>
</g>
<g>
</g>
<g>
</g>
<g>
</g>
<g>
</g>
<g>
</g>
<g>
</g>
<g>
</g>
<g>
</g>
<g>
</g>
<g>
</g>
<g>
</g>
<g>
</g>
<g>
</g>
<g>
</g>
<g>
</g>
</svg>
