<?xml version="1.0" encoding="iso-8859-1"?>
<!-- Generator: Adobe Illustrator 19.0.0, SVG Export Plug-In . SVG Version: 6.00 Build 0)  -->
<svg version="1.1" id="Layer_1" xmlns="http://www.w3.org/2000/svg" xmlns:xlink="http://www.w3.org/1999/xlink" x="0px" y="0px"
	 viewBox="0 0 512 512" style="enable-background:new 0 0 512 512;" xml:space="preserve">
<circle style="fill:#B5F1F4;" cx="256" cy="256" r="256"/>
<path style="fill:#84DBFF;" d="M361.855,489.153C443.502,452.024,502.2,373.27,510.873,279.995l-203.79-203.79L186.516,186.997
	l-15.719,7.821l84.078,84.078l0,0L361.855,489.153z"/>
<polygon style="fill:#935635;" points="181.867,179.567 181.867,278.892 255.859,274.049 255.859,174.723 "/>
<polygon style="fill:#804000;" points="329.869,169.879 255.859,174.723 255.859,274.049 329.869,269.203 "/>
<path style="fill:#FED8B2;" d="M277.902,259.865v-24.288H234.1v24.288c0,1.938-1.57,3.51-3.51,3.51h-30.186v83.815h111.192v-83.815
	H281.41C279.473,263.375,277.902,261.804,277.902,259.865z"/>
<path style="fill:#EABE96;" d="M311.596,263.375H281.41c-1.938,0-3.51-1.57-3.51-3.51v-24.288h-22.042v111.614h55.737
	L311.596,263.375z"/>
<circle style="fill:#FED8B2;" cx="185.061" cy="184.682" r="17.505"/>
<circle style="fill:#EABE96;" cx="326.939" cy="184.682" r="17.505"/>
<path style="fill:#F4E3C3;" d="M257.972,257.584h-3.944c-36.486,0-66.065-29.577-66.065-66.063v-60.319
	c0-36.486,29.579-66.065,66.064-66.065h3.944c36.486,0,66.065,29.577,66.065,66.064v60.319
	C324.037,228.007,294.459,257.584,257.972,257.584z"/>
<path style="fill:#FED8B2;" d="M257.972,65.136h-2.114v192.448h2.114c36.486,0,66.064-29.579,66.064-66.065V131.2
	C324.037,94.715,294.459,65.136,257.972,65.136z"/>
<path style="fill:#B97850;" d="M316.873,87.462c-12.976-18.482-34.435-30.573-58.732-30.573h-4.284
	c-39.614,0-71.99,32.115-71.99,71.728v5.548v95.422h10.793v-74.528c-0.002,0-0.005,0-0.007,0
	c31.954-3.246,63.376-9.516,90.915-23.283c9.911,11.381,21.354,21.542,33.989,29.787v68.024h12.31v-82.67v-18.301
	C329.869,113.299,325.051,99.114,316.873,87.462z"/>
<path style="fill:#935635;" d="M316.873,87.462c-12.976-18.482-34.435-30.573-58.732-30.573h-2.282v85.995
	c9.564-3.029,18.841-6.675,27.71-11.111c9.911,11.381,21.354,21.542,33.989,29.787v68.024h12.31v-82.668v-18.299
	C329.869,113.299,325.051,99.114,316.873,87.462z"/>
<circle style="fill:#59595B;" cx="223.918" cy="194.819" r="6.804"/>
<circle style="fill:#272525;" cx="288.082" cy="194.819" r="6.804"/>
<path style="fill:#FD8469;" d="M256,242.41c-8.516,0-15.444-6.928-15.444-15.444c0-1.445,1.171-2.613,2.613-2.613
	c1.445,0,2.613,1.171,2.613,2.613c0,5.634,4.584,10.216,10.216,10.216c5.634,0,10.216-4.584,10.216-10.218
	c0-1.445,1.171-2.613,2.613-2.613c1.443,0,2.613,1.171,2.613,2.613C271.444,235.484,264.516,242.41,256,242.41z"/>
<path style="fill:#FC6F58;" d="M268.829,224.353c-1.443,0-2.613,1.171-2.613,2.613c0,5.634-4.582,10.218-10.216,10.218
	c-0.033,0-0.066-0.005-0.098-0.005v5.229c0.033,0,0.066,0.005,0.098,0.005c8.516,0,15.443-6.928,15.443-15.444
	C271.444,225.523,270.274,224.353,268.829,224.353z"/>
<path style="fill:#FF6472;" d="M256,512c49.683,0,96.051-14.169,135.309-38.664c-8.318-47.382-21.497-125.511-24.119-159.139
	c-2.182-27.982-22.754-50.822-50.822-50.821h-23.304c0,20.47-16.594,65.179-37.064,65.179s-37.064-44.709-37.064-65.179h-23.305
	c-28.069,0-48.64,22.838-50.822,50.822c-2.622,33.63-15.801,111.756-24.119,159.139C159.949,497.831,206.317,512,256,512z"/>
<path style="fill:#C75163;" d="M367.192,314.197c-2.182-27.982-22.754-50.822-50.822-50.821h-23.305
	c0,20.47-16.594,65.179-37.064,65.179V512c49.683,0,96.049-14.169,135.309-38.664C382.993,425.955,369.814,347.827,367.192,314.197z
	"/>
<path style="fill:#F4B5CD;" d="M256,375.811c-47.128,0-85.333,38.205-85.333,85.333c0,14.253,3.513,27.679,9.692,39.491
	C204.267,508.02,229.667,512,256,512s51.733-3.98,75.642-11.364c6.178-11.812,9.692-25.238,9.692-39.491
	C341.333,414.017,303.128,375.811,256,375.811z"/>
<path style="fill:#F9AAC8;" d="M341.333,461.145c0-47.128-38.205-85.333-85.333-85.333V512c26.333,0,51.733-3.98,75.64-11.364
	C337.82,488.824,341.333,475.398,341.333,461.145z"/>
<path style="fill:#FF6472;" d="M202.559,438.691c0-14.757,11.964-26.719,26.721-26.719c14.757,0,26.721,11.962,26.721,26.719
	c0-14.757,11.964-26.719,26.721-26.719c14.757,0,26.721,11.962,26.721,26.719c0,25.548-53.441,56.11-53.441,56.11
	S202.559,465.679,202.559,438.691z"/>
<path style="fill:#C75163;" d="M309.441,438.691c0-14.757-11.964-26.719-26.721-26.719c-14.753,0-26.714,11.955-26.721,26.707
	v56.122C256.014,494.792,309.441,464.236,309.441,438.691z"/>
<g>
</g>
<g>
</g>
<g>
</g>
<g>
</g>
<g>
</g>
<g>
</g>
<g>
</g>
<g>
</g>
<g>
</g>
<g>
</g>
<g>
</g>
<g>
</g>
<g>
</g>
<g>
</g>
<g>
</g>
</svg>
