<?xml version="1.0" encoding="iso-8859-1"?>
<!-- Generator: Adobe Illustrator 19.0.0, SVG Export Plug-In . SVG Version: 6.00 Build 0)  -->
<svg version="1.1" id="Layer_1" xmlns="http://www.w3.org/2000/svg" xmlns:xlink="http://www.w3.org/1999/xlink" x="0px" y="0px"
	 viewBox="0 0 496.159 496.159" style="enable-background:new 0 0 496.159 496.159;" xml:space="preserve">
<path style="fill:#4ABC96;" d="M248.083,0.003C111.071,0.003,0,111.063,0,248.085c0,137.001,111.07,248.07,248.083,248.07
	c137.006,0,248.076-111.069,248.076-248.07C496.159,111.062,385.089,0.003,248.083,0.003z"/>
<g>
	<path style="fill:#CE4C36;" d="M195.663,342.607l-20.713-5.788c0,0-9.137-3.352-2.74-9.747l17.666-27.413l-11.879-1.218
		l-31.068,36.551c0,0-5.178,6.7,7.005,9.442c0,0,104.168,15.534,125.185,59.699c0,0,3.047,1.523,3.351-6.398
		C282.47,397.735,286.733,352.657,195.663,342.607z"/>
	<path style="fill:#CE4C36;" d="M228.253,362.556c0,0,6.245,15.688,4.264,23.15c0,0,3.199,1.217,4.265-1.827
		c1.067-3.049,3.198-13.25,3.198-16.752C239.979,363.621,228.253,362.556,228.253,362.556z"/>
	<path style="fill:#CE4C36;" d="M246.732,371.594c0,0,7.378,18.538,5.038,27.355c0,0,3.78,1.441,5.042-2.161
		c1.258-3.6,3.778-15.658,3.778-19.797C260.589,372.852,246.732,371.594,246.732,371.594z"/>
</g>
<path style="fill:#E25E40;" d="M202.771,300.978c0,0-3.655,6.702,1.828,16.042c0,0,0.608,39.595-0.61,78.175v41.424l8.935,0.406
	l9.746-128.938L202.771,300.978z"/>
<path style="fill:#D8D3D2;" d="M173.123,269.911c0,0,12.183,4.061,3.655,27.616c0,0,6.906,6.904,14.215,6.091
	c0,0,13.809-16.651,18.275-23.959C209.268,279.659,204.799,253.259,173.123,269.911z"/>
<path style="fill:#EDE6E4;" d="M239.32,241.078l-67.415,26.397c0,0,30.866-3.251,32.083,12.184l-4.061,23.554
	c0,0,9.341,0.405,14.01,3.453c4.67,3.047,9.137,4.266,10.762,3.857c0,0-4.467-28.833,0-37.767
	C224.7,272.756,230.384,250.014,239.32,241.078z"/>
<path style="fill:#666565;" d="M243.788,180.162l-73.914,37.767c0,0-21.116,6.903-29.646,16.245c0,0-34.521,35.739-6.903,69.039
	c0,0,0.405-9.341,3.248-10.56l5.687,13.403c0,0,4.062-16.648,7.311-18.681c0,0,8.12,11.776,10.151,12.589
	c0,0,6.499-19.086,12.997-24.772c0,0,15.026-14.214,38.986-18.681c0,0,29.645-10.966,43.452-21.93l7.312-48.733L243.788,180.162z"/>
<path style="fill:#CE4C36;" d="M225.511,62.389c0,0-52.388,6.497-21.523,25.585l151.073,25.991L225.511,62.389z"/>
<path style="fill:#E25E40;" d="M225.511,62.389c0,0-29.468,3.654-31.182,13.534c-0.571,3.294,160.732,38.042,160.732,38.042
	L225.511,62.389z"/>
<path style="fill:#EDE6E4;" d="M296.988,171.632c0,0-11.778-51.17-68.227-71.883c0,0-29.646-13.403-32.896-23.553
	c0,0,10.559-12.185,29.646-13.808c0,0,4.468-32.896-34.113-26.803c-10.59,1.672-28.58,13.028-29.646,30.051
	c-0.407,6.499-3.248,27.212,24.773,35.738c0,0,59.699,24.367,51.17,51.171c0,0-1.218,24.367-30.458,32.895
	c0,0-33.2,13.707-39.292,33.199c0,0,44.164-8.833,70.967-30.762l-9.746,30.457c0,0,20.712-8.527,28.022-14.619
	c0,0-6.093,31.675-3.656,37.767c0,0,13.403-7.31,18.275-18.274c0,0,3.656,8.528,2.438,17.055c0,0,18.275-17.055,15.838-35.33
	c0,0,3.251,6.092,4.063,9.34C294.146,214.274,305.111,206.559,296.988,171.632z"/>
<circle style="fill:#D1D1D1;" cx="197.49" cy="63.609" r="6.092"/>
<circle style="fill:#FFFFFF;" cx="197.49" cy="63.609" r="5.432"/>
<circle style="fill:#666565;" cx="197.49" cy="63.609" r="3.351"/>
<circle style="fill:#EDE6E4;" cx="198.75" cy="62.349" r="1.257"/>
<path style="fill:#E25E40;" d="M263.28,448.399c1.828-1.015,7.411,4.466,7.412,1.217c0-3.251-5.848-6.108-8.63-7.31
	c-16.802-7.267-37.362-7.107-37.362-7.107c-37.971-3.858-54.014,21.118-54.014,21.118c-2.234,9.139,10.91-2.257,16.246-4.061
	c28.224-9.542,83.354,7.005,85.486,4.263C274.551,453.78,261.453,449.415,263.28,448.399z"/>
<g>
	<path style="fill:#E9C29C;" d="M420.997,187.986c-8.339-12.044-25.71-14.45-38.799-5.382c-13.093,9.072-16.939,26.178-8.597,38.217
		c8.337,12.041,25.707,14.448,38.8,5.378C425.488,217.134,429.339,200.023,420.997,187.986z"/>
	<path style="fill:#E9C29C;" d="M386.363,180.817c-1.378-1.994-5.057-1.837-8.21,0.347c-3.151,2.183-4.588,5.571-3.208,7.563
		c1.382,1.994,5.236,1.978,8.389-0.208C386.488,186.336,387.746,182.811,386.363,180.817z"/>
</g>
<path style="fill:#D6AF90;" d="M375.719,203.327c-4.46,18.495,12.588,13.253,12.588,13.253
	C375.495,217.243,375.719,203.327,375.719,203.327z"/>
<ellipse transform="matrix(-0.5696 -0.8219 0.8219 -0.5696 458.0859 660.6266)" style="fill:#343433;" cx="402.009" cy="210.377" rx="4.865" ry="5.14"/>
<path style="fill:#FFFFFF;" d="M403.882,206.907c-0.611-0.88-1.862-1.073-2.798-0.425c-0.932,0.646-1.194,1.888-0.584,2.769
	c0.613,0.884,1.866,1.074,2.8,0.426C404.234,209.03,404.494,207.793,403.882,206.907z"/>
<path style="fill:#343433;" d="M391.784,186.725c-1.532-2.212-4.667-2.692-7-1.072c-2.333,1.614-2.984,4.715-1.453,6.928
	c1.531,2.208,4.663,2.688,6.995,1.073C392.662,192.037,393.316,188.934,391.784,186.725z"/>
<path style="fill:#FFFFFF;" d="M389.268,185.897c-0.61-0.883-1.862-1.076-2.798-0.425c-0.931,0.643-1.194,1.885-0.582,2.767
	c0.614,0.886,1.869,1.079,2.8,0.433C389.625,188.022,389.884,186.782,389.268,185.897z"/>
<path style="fill:#D6AF90;" d="M421.059,220.842c-2.083-3.005-7.274-3.016-11.596-0.021c-4.318,2.993-6.134,7.855-4.054,10.861
	c2.084,3.006,7.276,3.014,11.597,0.022C421.323,228.713,423.14,223.848,421.059,220.842z"/>
<path style="fill:#E9C29C;" d="M420.533,220.572c-1.88-2.711-6.779-2.931-10.826-0.127c-4.049,2.803-5.71,7.567-3.831,10.282
	c1.88,2.712,6.686,2.638,10.731-0.164C420.653,227.757,422.414,223.286,420.533,220.572z"/>
<g>
	<ellipse style="fill:#D6AF90;" cx="383.56" cy="202.709" rx="1.351" ry="1.486"/>
	<ellipse style="fill:#D6AF90;" cx="387.52" cy="207.389" rx="1.486" ry="1.351"/>
</g>
<g>
	<path style="fill:#EDC92F;" d="M377.451,210.912l-37.963-100.35l-3.822-0.838l-35.737,112.791l0.221,0.002
		c-0.873,3.394-1.338,6.951-1.338,10.617c0,23.45,19.01,42.459,42.458,42.459c23.45,0,42.459-19.009,42.459-42.459
		C383.729,224.986,381.429,217.375,377.451,210.912z"/>
	<path style="fill:#EDC92F;" d="M340.698,98.32c-0.106-0.103-0.212-0.206-0.316-0.306c-11.814-11.393-16.548-3.675-16.548-3.675
		c5.759,1.467,12.378,12.126,12.378,12.126l3.511,1.384c6.913-5.759,12.917-16.233,12.917-16.233
		C347.192,98.008,340.698,98.32,340.698,98.32z"/>
</g>
<path style="fill:#EDCF54;" d="M367.982,206.229c-2.909-2.909-18.922-65.227-24.008-63.681c-5.697,1.73-0.625,56.483-6.925,72.961
	c-11.078,28.966-22.91,44.561-22.91,44.561c14.869,14.869,38.973,14.869,53.842,0C382.85,245.201,382.85,221.096,367.982,206.229z"
	/>
<g>
</g>
<g>
</g>
<g>
</g>
<g>
</g>
<g>
</g>
<g>
</g>
<g>
</g>
<g>
</g>
<g>
</g>
<g>
</g>
<g>
</g>
<g>
</g>
<g>
</g>
<g>
</g>
<g>
</g>
</svg>
